<svg width="48" height="52" viewBox="0 0 48 52" fill="none" xmlns="http://www.w3.org/2000/svg">
<circle cx="24" cy="24" r="23" stroke="#FFF59D" stroke-width="2" stroke-linecap="round" stroke-linejoin="round" stroke-dasharray="2 8 12 16"/>
<path d="M24 4C18.6957 4 13.6086 6.10714 9.85786 9.85786C6.10714 13.6086 4 18.6957 4 24C4 29.3043 6.10714 34.3914 9.85786 38.1421C13.6086 41.8929 18.6957 44 24 44C29.3043 44 34.3914 41.8929 38.1421 38.1421C41.8929 34.3914 44 29.3043 44 24C44 18.6957 41.8929 13.6086 38.1421 9.85786C34.3914 6.10714 29.3043 4 24 4Z" fill="#FFF59D"/>
<path d="M36.9999 24C36.9999 16.3 30.3999 10.2 22.4999 11.1C16.4999 11.8 11.6999 16.6 11.0999 22.6C10.5999 27.2 12.4999 31.3 15.6999 33.9C17.0999 35.1 17.9999 36.8 17.9999 38.7V39H29.9999V38.9C29.9999 37.1 30.7999 35.3 32.1999 34.1C35.0999 31.7 36.9999 28.1 36.9999 24Z" fill="#FFA321"/>
<path d="M30.5996 22.2L27.5996 20.2C27.2996 20 26.7996 20 26.4996 20.2L23.9996 21.8L21.5996 20.2C21.2996 20 20.7996 20 20.4996 20.2L17.4996 22.2C17.2996 22.4 17.0996 22.6 17.0996 22.9C17.0996 23.2 17.0996 23.5 17.2996 23.7L21.0996 28.4V39H23.0996V28C23.0996 27.8 22.9996 27.6 22.8996 27.4L19.5996 23.3L21.0996 22.3L23.4996 23.9C23.7996 24.1 24.2996 24.1 24.5996 23.9L26.9996 22.3L28.4996 23.3L25.1996 27.4C25.0996 27.6 24.9996 27.8 24.9996 28V39H26.9996V28.4L30.7996 23.7C30.9996 23.5 31.0996 23.2 30.9996 22.9C30.8996 22.6 30.7996 22.3 30.5996 22.2Z" fill="#FFF59D"/>
<path d="M24 46C23.2044 46 22.4413 46.3161 21.8787 46.8787C21.3161 47.4413 21 48.2044 21 49C21 49.7956 21.3161 50.5587 21.8787 51.1213C22.4413 51.6839 23.2044 52 24 52C24.7956 52 25.5587 51.6839 26.1213 51.1213C26.6839 50.5587 27 49.7956 27 49C27 48.2044 26.6839 47.4413 26.1213 46.8787C25.5587 46.3161 24.7956 46 24 46Z" fill="#60A2FF"/>
<path d="M26 50H22C19.8 50 18 48.2 18 46V41H30V46C30 48.2 28.2 50 26 50Z" fill="#8EBDFF"/>
<path d="M30 46L18.4 47.6C18.7 48.3 19.3 49 20 49.4L29.4 48.1C29.8 47.5 30 46.8 30 46ZM18 43.7V45.7L30 44V42L18 43.7Z" fill="#E9F2FF"/>
</svg>
