<svg width="1542" height="1224" viewBox="0 0 1542 1224" fill="none" xmlns="http://www.w3.org/2000/svg">
<path fill-rule="evenodd" clip-rule="evenodd" d="M427.691 979.767L299.767 862L182 989.924L309.924 1107.69L427.691 979.767ZM285.514 933.961C290.46 938.514 298.16 938.196 302.713 933.251C307.266 928.305 306.947 920.605 302.002 916.052C297.056 911.499 289.356 911.818 284.803 916.763C280.25 921.709 280.569 929.409 285.514 933.961Z" fill="#FF9F19"/>
<path fill-rule="evenodd" clip-rule="evenodd" d="M1216.35 1127.55C1211.85 1074.5 1251.21 1027.85 1304.26 1023.35C1357.3 1018.85 1403.95 1058.21 1408.45 1111.26C1412.95 1164.3 1373.6 1210.95 1320.55 1215.45C1267.5 1219.95 1220.85 1180.6 1216.35 1127.55ZM1330.76 1084.95C1330.13 1077.53 1335.64 1071 1343.07 1070.37C1350.5 1069.74 1357.03 1075.25 1357.66 1082.67C1358.29 1090.1 1352.78 1096.63 1345.35 1097.26C1337.92 1097.89 1331.39 1092.38 1330.76 1084.95Z" fill="#EF6FE4"/>
<path fill-rule="evenodd" clip-rule="evenodd" d="M1003.51 459.089C969.886 474.173 930.397 459.141 915.313 425.513C900.229 391.886 915.261 352.397 948.888 337.313C982.516 322.228 1022 337.261 1037.09 370.888C1052.17 404.516 1037.14 444.004 1003.51 459.089ZM949.49 394.092C944.782 396.203 939.254 394.099 937.142 389.391C935.03 384.683 937.135 379.155 941.843 377.043C946.551 374.931 952.079 377.036 954.191 381.744C956.303 386.451 954.198 391.98 949.49 394.092Z" fill="#1975FF"/>
<path fill-rule="evenodd" clip-rule="evenodd" d="M683.477 257L514 295.875L552.876 465.352L722.352 426.477L683.477 257ZM565.28 348.334C571.832 346.832 575.925 340.302 574.422 333.75C572.919 327.198 566.389 323.105 559.838 324.608C553.286 326.111 549.192 332.64 550.695 339.192C552.198 345.744 558.728 349.837 565.28 348.334Z" fill="#FF9F19"/>
<path fill-rule="evenodd" clip-rule="evenodd" d="M1309.15 54.0568L1076.06 0L1022 233.093L1255.09 287.15L1309.15 54.0568ZM1107.88 95.806C1116.89 97.8958 1125.89 92.2848 1127.98 83.2735C1130.07 74.2621 1124.46 65.2628 1115.44 63.173C1106.43 61.0831 1097.43 66.6941 1095.34 75.7055C1093.25 84.7169 1098.87 93.7162 1107.88 95.806Z" fill="#FF9F19"/>
<path fill-rule="evenodd" clip-rule="evenodd" d="M449.86 472.3L167.56 639.86L0 357.56L449.86 472.3ZM339.682 510.241C350.596 503.763 354.192 489.664 347.714 478.751C341.236 467.837 327.138 464.241 316.224 470.719C305.31 477.197 301.714 491.296 308.192 502.209C314.67 513.123 328.769 516.719 339.682 510.241Z" fill="#09D7A7"/>
<path fill-rule="evenodd" clip-rule="evenodd" d="M406.439 75.9998L495.262 250.439L320.823 339.262L406.439 75.9998ZM425.38 152.025C421.946 145.281 413.696 142.598 406.952 146.032C400.208 149.466 397.525 157.716 400.959 164.46C404.393 171.204 412.643 173.887 419.387 170.453C426.131 167.019 428.814 158.769 425.38 152.025Z" fill="#09D7A7"/>
<path fill-rule="evenodd" clip-rule="evenodd" d="M1197 414.801L1413.96 287L1541.77 503.965L1197 414.801ZM1293.12 384.486C1284.73 389.426 1281.94 400.231 1286.88 408.619C1291.82 417.007 1302.62 419.801 1311.01 414.861C1319.4 409.92 1322.19 399.115 1317.25 390.727C1312.31 382.339 1301.51 379.545 1293.12 384.486Z" fill="#09D7A7"/>
</svg>
