<svg width="128" height="213" viewBox="0 0 128 213" fill="none" xmlns="http://www.w3.org/2000/svg">
<g clip-path="url(#clip0_549_4013)">
<path d="M64 212.177C99.3462 212.177 128 183.523 128 148.177C128 112.831 99.3462 84.1768 64 84.1768C28.6538 84.1768 0 112.831 0 148.177C0 183.523 28.6538 212.177 64 212.177Z" fill="url(#paint0_linear_549_4013)"/>
<path d="M28.9716 147.502C47.6289 139.373 60.0701 134.014 66.295 131.425C84.0685 124.033 87.7617 122.748 90.1688 122.705C90.6982 122.697 91.882 122.828 92.6488 123.45C93.2963 123.975 93.4744 124.685 93.5597 125.183C93.6449 125.681 93.7511 126.816 93.6667 127.703C92.7036 137.823 88.536 162.381 86.4158 173.715C85.5187 178.511 83.7522 180.12 82.042 180.277C78.3254 180.619 75.5032 177.821 71.9035 175.461C66.2706 171.769 63.0884 169.47 57.6208 165.867C51.302 161.703 55.3982 159.414 58.9993 155.674C59.9417 154.695 76.3171 139.801 76.6341 138.45C76.6737 138.281 76.7105 137.651 76.3363 137.318C75.9621 136.985 75.4098 137.099 75.0112 137.19C74.4462 137.318 65.4477 143.266 48.0156 155.033C45.4614 156.787 43.1479 157.641 41.0751 157.596C38.7899 157.547 34.3943 156.304 31.1265 155.242C27.1185 153.939 23.9331 153.25 24.2104 151.038C24.3549 149.885 25.942 148.707 28.9716 147.502Z" fill="#F5F9FC"/>
</g>
<path fill-rule="evenodd" clip-rule="evenodd" d="M24.5712 0L18.7107 1.8961L26.4177 19.714L29.3479 18.7659L24.5712 0ZM14.5682 11.4062L10.8088 14.9068L21.2802 23.8909L23.1599 22.1406L14.5682 11.4062Z" fill="#FFDB00"/>
<path fill-rule="evenodd" clip-rule="evenodd" d="M64.1523 30.5471C64.1523 35.3307 67.9029 39.2085 72.5294 39.2085C77.1559 39.2085 80.9064 35.3307 80.9064 30.5471C80.9064 25.7636 77.1559 21.8857 72.5294 21.8857C67.9029 21.8857 64.1523 25.7636 64.1523 30.5471ZM66.1211 43.5392C60.8656 43.5392 58.0683 46.444 56.4112 48.1649L56.411 48.1651C56.3513 48.2271 56.2931 48.2876 56.2363 48.3463L51.5811 53.1539V65.1927L59.964 56.7479V104.169C59.964 106.551 61.8489 108.5 64.1525 108.5C66.4562 108.5 68.341 106.551 68.341 104.169V82.5156H76.7181V104.169C76.7181 106.551 78.6029 108.5 80.9066 108.5C83.2103 108.5 85.0951 106.551 85.0951 104.169V73.0259L87.3432 72.5363C89.5018 72.0662 90.8705 69.9352 90.4004 67.7767L86.0734 47.9084C85.9156 47.1837 85.5705 46.548 85.1 46.041C84.4532 44.5599 82.4171 43.5392 76.76 43.5392H66.1211Z" fill="#FFDB00"/>
<path fill-rule="evenodd" clip-rule="evenodd" d="M47.5539 30.5472C47.5539 29.7997 47.4623 29.0744 47.2901 28.3825C46.3604 24.6464 43.0804 21.8857 39.1768 21.8857C38.3323 21.8857 37.5169 22.015 36.7482 22.2553C33.306 23.3317 30.7998 26.6368 30.7998 30.5471C30.7998 31.743 31.0342 32.8823 31.4581 33.9185C32.7298 37.0272 35.7069 39.2085 39.1768 39.2085L39.1769 39.2085C43.8034 39.2085 47.5539 35.3307 47.5539 30.5472ZM55.2951 48.165L55.3887 48.2622L55.47 48.3464L71.2188 64.6731C72.8523 66.3621 72.8523 69.0904 71.2188 70.7794C69.5853 72.4684 66.9465 72.4684 65.313 70.7794L51.5808 56.2766V104.042C51.5808 106.424 49.8574 108.5 47.5537 108.5C45.25 108.5 43.3652 106.551 43.3652 104.169V82.5156H34.9882V104.169C34.9882 106.551 33.1033 108.5 30.7997 108.5C28.496 108.5 26.6112 106.551 26.6112 104.169V50.9448C16.0142 47.6535 7.88854 38.3424 6.04559 26.8228C5.66863 24.2244 7.67911 21.8858 10.2341 21.8858C12.2865 21.8858 14.0038 23.4448 14.3388 25.5669C16.0561 35.744 24.6426 43.496 34.9463 43.5393H45.5851C50.8406 43.5393 53.6379 46.4441 55.2951 48.165Z" fill="#FFDB00"/>
<defs>
<linearGradient id="paint0_linear_549_4013" x1="64" y1="84.1768" x2="64" y2="211.227" gradientUnits="userSpaceOnUse">
<stop stop-color="#2AABEE"/>
<stop offset="1" stop-color="#229ED9"/>
</linearGradient>
<clipPath id="clip0_549_4013">
<rect width="128" height="128" fill="white" transform="translate(0 84.1768)"/>
</clipPath>
</defs>
</svg>
