<svg width="22" height="18" viewBox="0 0 22 18" fill="none" xmlns="http://www.w3.org/2000/svg">
<path d="M6.00781 4.00781V2.97656C6.00781 2.14844 6.29688 1.44531 6.875 0.867188C7.45312 0.289063 8.15625 0 8.98438 0H12.9688C13.3594 0 13.7422 0.078125 14.1172 0.234375C14.4922 0.390625 14.8203 0.609375 15.1016 0.890625C15.3984 1.17188 15.6172 1.5 15.7578 1.875C15.9141 2.25 15.9922 2.64062 15.9922 3.04688C15.9922 3.28125 15.9922 3.49219 15.9922 3.67969C15.9922 3.85156 15.9922 3.95312 15.9922 3.98438C15.9922 3.98438 15.9922 3.99219 15.9922 4.00781H18.0078C18.3984 4.00781 18.7734 4.08594 19.1328 4.24219C19.5078 4.38281 19.8359 4.59375 20.1172 4.875C20.3984 5.15625 20.6172 5.48438 20.7734 5.85938C20.9297 6.21875 21.0078 6.59375 21.0078 6.98438V15C21.0078 15.3906 20.9297 15.7656 20.7734 16.125C20.6172 16.5 20.3984 16.8281 20.1172 17.1094C19.8359 17.3906 19.5078 17.6094 19.1328 17.7656C18.7734 17.9219 18.3906 18 17.9844 18H3.96875C3.15625 18 2.45312 17.7109 1.85938 17.1328C1.28125 16.5547 0.992188 15.8516 0.992188 15.0234V7.00781C0.992188 6.17969 1.28906 5.47656 1.88281 4.89844C2.47656 4.30469 3.1875 4.00781 4.01562 4.00781H6.00781ZM3.00781 10.6172V15.0234C3.00781 15.2891 3.10156 15.5156 3.28906 15.7031C3.47656 15.9062 3.70312 16.0078 3.96875 16.0078C3.96875 16.0078 4.70312 16.0078 6.17188 16.0078C7.625 16.0078 9.22656 16.0078 10.9766 16.0078C12.7266 16.0078 14.3359 16.0078 15.8047 16.0078C17.2578 16.0078 17.9844 16.0078 17.9844 16.0078C18.125 16.0078 18.2578 15.9766 18.3828 15.9141C18.5078 15.8672 18.6172 15.7969 18.7109 15.7031C18.8047 15.6094 18.875 15.5 18.9219 15.375C18.9688 15.25 18.9922 15.125 18.9922 15V10.6172L16.4375 11.8828C16.375 11.9297 16.3047 11.9609 16.2266 11.9766C16.1484 11.9922 16.0703 12 15.9922 12H6.00781C5.92969 12 5.85156 11.9922 5.77344 11.9766C5.69531 11.9609 5.625 11.9297 5.5625 11.8828L3.00781 10.6172ZM18.9922 8.39062V6.98438C18.9922 6.85938 18.9688 6.73438 18.9219 6.60938C18.875 6.48438 18.8047 6.375 18.7109 6.28125C18.6172 6.1875 18.5078 6.11719 18.3828 6.07031C18.2578 6.02344 18.1328 6 18.0078 6C18.0078 6 17.2812 6 15.8281 6C14.3594 6 12.75 6 11 6C9.26562 6 7.66406 6 6.19531 6C4.74219 6 4.01562 6 4.01562 6C3.73438 6 3.49219 6.10156 3.28906 6.30469C3.10156 6.49219 3.00781 6.72656 3.00781 7.00781V8.39062L6.24219 10.0078C6.24219 10.0078 6.73438 10.0078 7.71875 10.0078C8.71875 10.0078 9.8125 10.0078 11 10.0078C12.1875 10.0078 13.2812 10.0078 14.2812 10.0078C15.2656 10.0078 15.7578 10.0078 15.7578 10.0078L18.9922 8.39062ZM14 4.00781C14 4.00781 14 3.85156 14 3.53906C14 3.21094 14 3.04688 14 3.04688C14 2.90625 13.9688 2.77344 13.9062 2.64844C13.8594 2.52344 13.7891 2.40625 13.6953 2.29688C13.6016 2.20312 13.4844 2.13281 13.3438 2.08594C13.2188 2.02344 13.0938 1.99219 12.9688 1.99219H8.98438C8.70312 1.99219 8.46875 2.09375 8.28125 2.29688C8.09375 2.48438 8 2.71094 8 2.97656V3.98438C8 3.98438 8 3.99219 8 4.00781H14Z" fill="#E2E7EC"/>
</svg>
