<svg width="22" height="22" viewBox="0 0 22 22" fill="none" xmlns="http://www.w3.org/2000/svg">
<path d="M11 0.992188C9.625 0.992188 8.32812 1.25781 7.10938 1.78906C5.89062 2.30469 4.82812 3.01563 3.92188 3.92188C3.01562 4.82812 2.30469 5.89062 1.78906 7.10938C1.25781 8.32812 0.992188 9.625 0.992188 11C0.992188 12.375 1.25781 13.6719 1.78906 14.8906C2.30469 16.1094 3.01562 17.1719 3.92188 18.0781C4.82812 18.9844 5.89062 19.6953 7.10938 20.2109C8.32812 20.7422 9.625 21.0078 11 21.0078C12.375 21.0078 13.6719 20.7422 14.8906 20.2109C16.1094 19.6953 17.1719 18.9844 18.0781 18.0781C18.9844 17.1719 19.6953 16.1094 20.2109 14.8906C20.7422 13.6719 21.0078 12.375 21.0078 11C21.0078 9.625 20.7422 8.32812 20.2109 7.10938C19.6953 5.89062 18.9844 4.82812 18.0781 3.92188C17.1719 3.01563 16.1094 2.30469 14.8906 1.78906C13.6719 1.25781 12.375 0.992188 11 0.992188ZM11 3.00781C12.1094 3.00781 13.1484 3.21875 14.1172 3.64062C15.0859 4.04688 15.9297 4.61719 16.6484 5.35156C17.3828 6.07031 17.9531 6.91406 18.3594 7.88281C18.7812 8.85156 18.9922 9.89062 18.9922 11C18.9922 12.1094 18.7812 13.1484 18.3594 14.1172C17.9531 15.0859 17.3828 15.9375 16.6484 16.6719C15.9297 17.3906 15.0859 17.9531 14.1172 18.3594C13.1484 18.7812 12.1094 18.9922 11 18.9922C9.89062 18.9922 8.85156 18.7812 7.88281 18.3594C6.91406 17.9531 6.0625 17.3906 5.32812 16.6719C4.60938 15.9375 4.04688 15.0859 3.64062 14.1172C3.21875 13.1484 3.00781 12.1094 3.00781 11C3.00781 9.89062 3.21875 8.85156 3.64062 7.88281C4.04688 6.91406 4.60938 6.07031 5.32812 5.35156C6.0625 4.61719 6.91406 4.04688 7.88281 3.64062C8.85156 3.21875 9.89062 3.00781 11 3.00781ZM11 15.9922C11.2812 15.9922 11.5156 16.0938 11.7031 16.2969C11.9062 16.4844 12.0078 16.7188 12.0078 17C12.0078 17.2812 11.9062 17.5156 11.7031 17.7031C11.5156 17.9062 11.2812 18.0078 11 18.0078C10.7188 18.0078 10.4766 17.9062 10.2734 17.7031C10.0859 17.5156 9.99219 17.2812 9.99219 17C9.99219 16.7188 10.0859 16.4844 10.2734 16.2969C10.4766 16.0938 10.7188 15.9922 11 15.9922ZM12.9922 7.97656V8C12.9922 8.35938 12.9688 8.65625 12.9219 8.89062C12.875 9.125 12.8047 9.32812 12.7109 9.5C12.5547 9.76562 12.3516 9.96094 12.1016 10.0859C11.8672 10.2109 11.6484 10.3594 11.4453 10.5312C11.0703 10.8125 10.7344 11.2031 10.4375 11.7031C10.1406 12.1875 9.99219 12.9531 9.99219 14C9.99219 14.2812 10.0859 14.5234 10.2734 14.7266C10.4766 14.9141 10.7188 15.0078 11 15.0078C11.2812 15.0078 11.5156 14.9141 11.7031 14.7266C11.9062 14.5234 12.0078 14.2812 12.0078 14C12.0078 13.6406 12.0312 13.3438 12.0781 13.1094C12.125 12.875 12.1953 12.6719 12.2891 12.5C12.4453 12.2344 12.6406 12.0391 12.875 11.9141C13.125 11.7891 13.3516 11.6406 13.5547 11.4688C13.9297 11.1875 14.2656 10.8047 14.5625 10.3203C14.8594 9.82031 15.0078 9.04688 15.0078 8C15.0078 6.89062 14.6172 5.94531 13.8359 5.16406C13.0547 4.38281 12.1094 3.99219 11 3.99219C10.2656 3.99219 9.58594 4.17969 8.96094 4.55469C8.33594 4.92969 7.85156 5.42969 7.50781 6.05469C7.36719 6.30469 7.33594 6.5625 7.41406 6.82812C7.49219 7.09375 7.64844 7.28906 7.88281 7.41406C8.13281 7.55469 8.39062 7.58594 8.65625 7.50781C8.92188 7.42969 9.11719 7.27344 9.24219 7.03906C9.42969 6.71094 9.67969 6.46094 9.99219 6.28906C10.3047 6.10156 10.6406 6.00781 11 6.00781C11.5469 6.00781 12.0156 6.20312 12.4062 6.59375C12.7969 6.96875 12.9922 7.42969 12.9922 7.97656Z" fill="#E2E7EC"/>
</svg>
