<svg width="22" height="16" viewBox="0 0 22 16" fill="none" xmlns="http://www.w3.org/2000/svg">
<path d="M21.0078 12.0078C21.0078 12.8359 20.7109 13.5391 20.1172 14.1172C19.5391 14.7109 18.8359 15.0078 18.0078 15.0078C17.1328 15.0078 16.0781 15.0078 14.8438 15.0078C13.5938 15.0078 12.3125 15.0078 11 15.0078C9.6875 15.0078 8.40625 15.0078 7.15625 15.0078C5.92188 15.0078 4.86719 15.0078 3.99219 15.0078C3.16406 15.0078 2.45312 14.7109 1.85938 14.1172C1.28125 13.5391 0.992188 12.8359 0.992188 12.0078V3.99219C0.992188 3.16406 1.28125 2.46094 1.85938 1.88281C2.45312 1.28906 3.16406 0.992188 3.99219 0.992188C4.86719 0.992188 5.92188 0.992188 7.15625 0.992188C8.40625 0.992188 9.6875 0.992188 11 0.992188C12.3125 0.992188 13.5938 0.992188 14.8438 0.992188C16.0781 0.992188 17.1328 0.992188 18.0078 0.992188C18.8359 0.992188 19.5391 1.28906 20.1172 1.88281C20.7109 2.46094 21.0078 3.16406 21.0078 3.99219V12.0078ZM3.00781 7.0625V12.0078C3.00781 12.2734 3.10156 12.5078 3.28906 12.7109C3.49219 12.8984 3.72656 12.9922 3.99219 12.9922H18.0078C18.2734 12.9922 18.5 12.8984 18.6875 12.7109C18.8906 12.5078 18.9922 12.2734 18.9922 12.0078V7.0625L11.3516 9.94531C11.2422 9.97656 11.125 9.99219 11 9.99219C10.875 9.99219 10.7578 9.97656 10.6484 9.94531L3.00781 7.0625ZM18.9922 4.92969V3.99219C18.9922 3.72656 18.8906 3.5 18.6875 3.3125C18.5 3.10938 18.2734 3.00781 18.0078 3.00781H3.99219C3.72656 3.00781 3.49219 3.10938 3.28906 3.3125C3.10156 3.5 3.00781 3.72656 3.00781 3.99219V4.92969L11 7.92969L18.9922 4.92969Z" fill="#E2E7EC"/>
</svg>
