<svg width="22" height="22" viewBox="0 0 22 22" fill="none" xmlns="http://www.w3.org/2000/svg">
<path d="M6.54688 19.8828C6.54688 19.8828 7.00781 20.0703 7.92969 20.4453C8.86719 20.8203 9.89062 21.0078 11 21.0078C12.1094 21.0078 13.125 20.8203 14.0469 20.4453C14.9844 20.0703 15.4531 19.8828 15.4531 19.8828C15.7031 19.7734 15.8672 19.5859 15.9453 19.3203C16.0391 19.0547 16.0234 18.7969 15.8984 18.5469C15.7734 18.2969 15.5781 18.125 15.3125 18.0312C15.0469 17.9531 14.7969 17.9766 14.5625 18.1016C14.5625 18.1016 14.1875 18.25 13.4375 18.5469C12.7031 18.8438 11.8906 18.9922 11 18.9922C10.1094 18.9922 9.28906 18.8438 8.53906 18.5469C7.80469 18.25 7.4375 18.1016 7.4375 18.1016C7.20312 17.9766 6.95312 17.9531 6.6875 18.0312C6.42188 18.125 6.22656 18.2969 6.10156 18.5469C5.97656 18.7969 5.95312 19.0547 6.03125 19.3203C6.125 19.5859 6.29688 19.7734 6.54688 19.8828ZM20 17C20.2188 17 20.4141 16.9375 20.5859 16.8125C20.7734 16.6719 20.8984 16.5 20.9609 16.2969C21.0234 16.0781 21.0156 15.8672 20.9375 15.6641C20.8594 15.4609 20.7344 15.2969 20.5625 15.1719C20.5625 15.1719 20.1328 14.7422 19.2734 13.8828C18.4297 13.0078 18.0078 11.7109 18.0078 9.99219C18.0078 9.44531 17.9922 8.84375 17.9609 8.1875C17.9453 7.53125 17.8672 6.875 17.7266 6.21875C17.5703 5.48438 17.3203 4.78906 16.9766 4.13281C16.6484 3.46094 16.1797 2.875 15.5703 2.375C15.0547 1.96875 14.4219 1.64062 13.6719 1.39062C12.9375 1.125 12.0469 0.992188 11 0.992188C9.95312 0.992188 9.05469 1.125 8.30469 1.39062C7.57031 1.64062 6.94531 1.96875 6.42969 2.375C5.82031 2.875 5.34375 3.46094 5 4.13281C4.67188 4.78906 4.42969 5.48438 4.27344 6.21875C4.13281 6.875 4.04688 7.53125 4.01562 8.1875C4 8.84375 3.99219 9.44531 3.99219 9.99219C3.99219 11.7109 3.5625 13.0078 2.70312 13.8828C1.85938 14.7422 1.4375 15.1719 1.4375 15.1719C1.26562 15.2969 1.14062 15.4609 1.0625 15.6641C0.984375 15.8672 0.976562 16.0781 1.03906 16.2969C1.10156 16.5 1.21875 16.6719 1.39062 16.8125C1.57812 16.9375 1.78125 17 2 17H20ZM17.6328 15.0078H4.36719C4.78906 14.4297 5.16406 13.7266 5.49219 12.8984C5.83594 12.0703 6.00781 11.1016 6.00781 9.99219C6.00781 9.50781 6.01562 8.96875 6.03125 8.375C6.04688 7.78125 6.11719 7.19531 6.24219 6.61719C6.33594 6.11719 6.49219 5.63281 6.71094 5.16406C6.94531 4.67969 7.27344 4.27344 7.69531 3.94531C8.05469 3.64844 8.50781 3.42187 9.05469 3.26562C9.60156 3.09375 10.25 3.00781 11 3.00781C11.75 3.00781 12.3984 3.09375 12.9453 3.26562C13.4922 3.42187 13.9453 3.64844 14.3047 3.94531C14.7266 4.27344 15.0469 4.67969 15.2656 5.16406C15.5 5.63281 15.6641 6.11719 15.7578 6.61719C15.8828 7.19531 15.9531 7.78125 15.9688 8.375C15.9844 8.96875 15.9922 9.50781 15.9922 9.99219C15.9922 11.1016 16.1562 12.0703 16.4844 12.8984C16.8281 13.7266 17.2109 14.4297 17.6328 15.0078Z" fill="#E2E7EC"/>
</svg>
