<svg width="22" height="18" viewBox="0 0 22 18" fill="none" xmlns="http://www.w3.org/2000/svg">
<path d="M11.2109 7.39062L8.21094 11.3984C8.08594 11.5547 8.01562 11.7266 8 11.9141C7.98438 12.1016 8.02344 12.2812 8.11719 12.4531C8.19531 12.625 8.3125 12.7578 8.46875 12.8516C8.64062 12.9453 8.82031 12.9922 9.00781 12.9922H11C11 12.9922 10.6953 13.3906 10.0859 14.1875C9.49219 15 9.19531 15.4062 9.19531 15.4062C9.03906 15.625 8.97656 15.8672 9.00781 16.1328C9.05469 16.4141 9.1875 16.6328 9.40625 16.7891C9.625 16.9609 9.86719 17.0234 10.1328 16.9766C10.4141 16.9453 10.6328 16.8203 10.7891 16.6016L13.7891 12.5938C13.9141 12.4531 13.9844 12.2891 14 12.1016C14.0156 11.8984 13.9766 11.7188 13.8828 11.5625C13.8047 11.3906 13.6797 11.2578 13.5078 11.1641C13.3516 11.0547 13.1797 11 12.9922 11H11C11 11 11.2969 10.6016 11.8906 9.80469C12.5 9.00781 12.8047 8.60938 12.8047 8.60938C12.9609 8.375 13.0156 8.125 12.9688 7.85938C12.9375 7.57812 12.8125 7.35938 12.5938 7.20312C12.375 7.03125 12.125 6.96875 11.8438 7.01562C11.5781 7.04688 11.3672 7.17188 11.2109 7.39062ZM4.0625 6.10156C3.1875 6.32031 2.45312 6.78906 1.85938 7.50781C1.28125 8.22656 0.992188 9.05469 0.992188 9.99219C0.992188 11.1016 1.38281 12.0469 2.16406 12.8281C2.94531 13.6094 3.89062 14 5 14C5.28125 14 5.51562 13.9062 5.70312 13.7188C5.90625 13.5156 6.00781 13.2734 6.00781 12.9922C6.00781 12.7266 5.90625 12.5 5.70312 12.3125C5.51562 12.1094 5.28125 12.0078 5 12.0078C4.45312 12.0078 3.98438 11.8125 3.59375 11.4219C3.20312 11.0312 3.00781 10.5547 3.00781 9.99219C3.00781 9.44531 3.20312 8.97656 3.59375 8.58594C3.98438 8.19531 4.45312 8 5 8C5.34375 8 5.59375 7.91406 5.75 7.74219C5.92188 7.57031 6.00781 7.3125 6.00781 6.96875C6.00781 5.875 6.39844 4.94531 7.17969 4.17969C7.96094 3.39844 8.89844 3.00781 9.99219 3.00781C11.0078 3.00781 11.8906 3.34375 12.6406 4.01562C13.4062 4.67188 13.8516 5.49219 13.9766 6.47656C13.9922 6.64844 14.0469 6.80469 14.1406 6.94531C14.2344 7.07031 14.3516 7.16406 14.4922 7.22656C14.6328 7.30469 14.7812 7.35156 14.9375 7.36719C15.0938 7.36719 15.25 7.32812 15.4062 7.25C15.5625 7.17188 15.7344 7.10938 15.9219 7.0625C16.1094 7.01562 16.3047 6.99219 16.5078 6.99219C17.1953 6.99219 17.7812 7.24219 18.2656 7.74219C18.75 8.22656 18.9922 8.8125 18.9922 9.5C18.9922 10.1875 18.75 10.7812 18.2656 11.2812C17.7812 11.7656 17.1953 12.0078 16.5078 12.0078C16.2266 12.0078 15.9844 12.1094 15.7812 12.3125C15.5938 12.5 15.5 12.7266 15.5 12.9922C15.5 13.2734 15.5938 13.5156 15.7812 13.7188C15.9844 13.9062 16.2266 14 16.5078 14C17.7422 14 18.7969 13.5625 19.6719 12.6875C20.5625 11.7969 21.0078 10.7344 21.0078 9.5C21.0078 8.26562 20.5625 7.21094 19.6719 6.33594C18.7969 5.44531 17.7422 5 16.5078 5C16.3672 5 16.2266 5.00781 16.0859 5.02344C15.9453 5.03906 15.8125 5.05469 15.6875 5.07031C15.4844 4.47656 15.1953 3.92969 14.8203 3.42969C14.4609 2.92969 14.0312 2.5 13.5312 2.14062C13.0312 1.78125 12.4844 1.5 11.8906 1.29688C11.2969 1.09375 10.6641 0.992188 9.99219 0.992188C9.24219 0.992188 8.53125 1.125 7.85938 1.39062C7.1875 1.65625 6.58594 2.01562 6.05469 2.46875C5.53906 2.92188 5.10156 3.46094 4.74219 4.08594C4.39844 4.71094 4.17188 5.38281 4.0625 6.10156Z" fill="#E2E7EC"/>
</svg>
