<svg width="122" height="18" viewBox="0 0 122 18" fill="none" xmlns="http://www.w3.org/2000/svg">
<path d="M12.0934 12.5025H5.62024L4.41747 15.5172H0L6.75741 0H11.0218L17.8011 15.5172H13.2961L12.0934 12.5025ZM10.825 9.26601L8.8568 4.30049L6.88862 9.26601H10.825Z" fill="#F5F9FC"/>
<path d="M24.8694 11.2389H23.4698V15.5172H19.3148V3.50246H23.4698V7.93596H24.9569L27.8654 3.50246H32.261L28.2809 9.26601L32.5234 15.5172H27.6249L24.8694 11.2389Z" fill="#F5F9FC"/>
<path d="M38.5204 3.30296C40.4886 3.30296 41.9902 3.76108 43.0253 4.67734C44.0605 5.57882 44.578 6.96798 44.578 8.84483V15.5172H40.7073V13.9655C40.1095 15.133 38.9432 15.7167 37.2083 15.7167C36.2898 15.7167 35.4953 15.5542 34.8246 15.2291C34.154 14.9039 33.6437 14.468 33.2938 13.9212C32.9585 13.3596 32.7908 12.7241 32.7908 12.0148C32.7908 10.8768 33.2209 9.99754 34.0811 9.37685C34.9412 8.74138 36.2679 8.42365 38.0612 8.42365H40.423C40.3501 7.15271 39.5118 6.51724 37.9081 6.51724C37.3395 6.51724 36.7636 6.6133 36.1805 6.80542C35.5973 6.98276 35.1016 7.23399 34.6934 7.55911L33.2938 4.69951C33.9499 4.25616 34.7444 3.91626 35.6775 3.6798C36.6251 3.42857 37.5728 3.30296 38.5204 3.30296ZM38.3673 13.0567C38.8484 13.0567 39.2712 12.9384 39.6357 12.702C40.0002 12.4655 40.2626 12.1182 40.423 11.6601V10.6182H38.6298C37.4197 10.6182 36.8147 11.0246 36.8147 11.8374C36.8147 12.2069 36.9532 12.5025 37.2302 12.7241C37.5072 12.9458 37.8862 13.0567 38.3673 13.0567Z" fill="#F5F9FC"/>
<path d="M61.0955 12.1478V18H57.2466V15.5172H49.7894V18H45.9187V12.1478H46.356C47.0704 12.133 47.5661 11.7414 47.8431 10.9729C48.1201 10.1897 48.2878 9.09606 48.3461 7.69212L48.4992 3.50246H59.4554V12.1478H61.0955ZM52.0856 8.00246C52.0419 9.08128 51.9617 9.94581 51.8451 10.5961C51.7284 11.2463 51.5098 11.7635 51.189 12.1478H55.3003V6.84975H52.1294L52.0856 8.00246Z" fill="#F5F9FC"/>
<path d="M74.8871 9.53202C74.8871 9.56158 74.8652 9.90887 74.8215 10.5739H66.2052C66.3802 11.1946 66.7155 11.6749 67.2112 12.0148C67.7215 12.3399 68.3557 12.5025 69.1138 12.5025C69.6824 12.5025 70.1708 12.4212 70.579 12.2586C71.0018 12.0961 71.4246 11.83 71.8474 11.4606L74.0342 13.766C72.8825 15.0665 71.1986 15.7167 68.9826 15.7167C67.5975 15.7167 66.3802 15.4507 65.3305 14.9187C64.2808 14.3867 63.4644 13.6478 62.8812 12.702C62.3126 11.7562 62.0283 10.6847 62.0283 9.48768C62.0283 8.30542 62.3053 7.24877 62.8593 6.31773C63.4279 5.37192 64.2079 4.633 65.1993 4.10099C66.1907 3.56897 67.306 3.30296 68.5452 3.30296C69.7261 3.30296 70.7977 3.55419 71.7599 4.05665C72.7221 4.54433 73.4802 5.26108 74.0342 6.2069C74.6028 7.13793 74.8871 8.24631 74.8871 9.53202ZM68.5671 6.29557C67.9256 6.29557 67.3862 6.48029 66.9488 6.84975C66.526 7.21921 66.2563 7.72167 66.1396 8.35714H70.9945C70.8778 7.72167 70.6008 7.21921 70.1635 6.84975C69.7407 6.48029 69.2085 6.29557 68.5671 6.29557Z" fill="#F5F9FC"/>
<path d="M88.5859 15.5172V9.19951L85.5462 14.4532H83.7748L80.8226 9.11084V15.5172H77.083V3.50246H81.4567L84.7589 9.77586L88.3891 3.50246H92.3036L92.3255 15.5172H88.5859Z" fill="#F5F9FC"/>
<path d="M95.1289 3.50246H99.2621V9.79803L104.226 3.50246H108.053V15.5172H103.898V9.19951L98.9778 15.5172H95.1289V3.50246Z" fill="#F5F9FC"/>
<path d="M122 3.50246V15.5172H118.304V12.2586H116.424L114.324 15.5172H109.929L112.553 11.6823C111.765 11.3276 111.16 10.8473 110.738 10.2414C110.329 9.62069 110.125 8.88177 110.125 8.02463C110.125 6.59113 110.65 5.48276 111.7 4.69951C112.75 3.90148 114.193 3.50246 116.03 3.50246H122ZM116.117 6.82759C114.951 6.82759 114.368 7.27832 114.368 8.1798C114.368 8.65271 114.506 9 114.783 9.22167C115.075 9.44335 115.512 9.55419 116.095 9.55419H118.304V6.82759H116.117Z" fill="#F5F9FC"/>
</svg>
