<svg width="32" height="32" viewBox="0 0 32 32" fill="none" xmlns="http://www.w3.org/2000/svg">
<path d="M4.28626 21.0001C3.01134 21.0001 2 21.967 2 23.2855C2 23.8134 2.10257 24.286 2.42384 24.6257L7.18067 29.588C7.50527 29.9276 8.11992 30 8.60465 30C9.85955 30 11 28.9002 11 27.5852V23.1693C10.9992 21.851 9.74911 21 8.49571 21C7.09989 21.0001 5.68296 21.0001 4.28626 21.0001Z" fill="#F5F9FC"/>
<path d="M22 15.9992C22 12.6833 19.3165 10 15.9996 10C12.6827 10 10 12.6815 10 15.9992C10 19.3168 12.6827 22 15.9996 22C19.3157 21.9991 22 19.3149 22 15.9992ZM17.7491 12.5C18.7234 12.5 19.5 13.2753 19.5 14.25C19.5 15.2247 18.725 16 17.7491 16C16.7748 16 16 15.2239 16 14.25C15.9991 13.2752 16.7731 12.5 17.7491 12.5Z" fill="#F5F9FC"/>
<path d="M16.09 0C7.32226 0 0 7.30159 0 16.0498V16.5244C0 18.0677 1.50742 19.3384 3.05544 19.3384C4.60439 19.3384 6.11087 18.0694 6.11087 16.5244V16.0498C6.11087 10.4422 10.2291 5.88186 15.8496 5.88186C21.4694 5.88186 26.0001 10.2873 26.0001 15.8943C26.0001 21.5012 21.3871 25.905 15.7673 25.905H15.2907C13.7434 25.905 12.8386 27.4093 12.8386 28.9533C12.8386 30.4973 14.1127 32 15.6607 32H16.1373C24.9058 32 32 24.7483 32 16.0001C32 7.25336 24.9058 0 16.1373 0H16.09Z" fill="#F5F9FC"/>
</svg>
