<svg width="36" height="36" viewBox="0 0 36 36" fill="none" xmlns="http://www.w3.org/2000/svg">
<path d="M18 36C27.9411 36 36 27.9411 36 18C36 8.05887 27.9411 0 18 0C8.05887 0 0 8.05887 0 18C0 27.9411 8.05887 36 18 36Z" fill="url(#paint0_linear_173_27123)"/>
<path d="M8.14821 17.81C13.3956 15.5239 16.8946 14.0167 18.6454 13.2885C23.6442 11.2093 24.6829 10.8481 25.3599 10.8361C25.5088 10.8336 25.8417 10.8705 26.0574 11.0455C26.2395 11.1932 26.2896 11.3928 26.3136 11.5329C26.3376 11.673 26.3674 11.9922 26.3437 12.2415C26.0728 15.0877 24.9007 21.9948 24.3044 25.1826C24.0521 26.5315 23.5552 26.9838 23.0742 27.028C22.0289 27.1242 21.2352 26.3372 20.2228 25.6736C18.6385 24.6351 17.7436 23.9886 16.2058 22.9753C14.4286 21.8041 15.5807 21.1605 16.5935 20.1085C16.8585 19.8332 21.4641 15.6441 21.5533 15.2641C21.5644 15.2165 21.5748 15.0394 21.4695 14.9458C21.3643 14.8523 21.2089 14.8843 21.0968 14.9097C20.9379 14.9458 18.4071 16.6186 13.5043 19.9281C12.786 20.4214 12.1353 20.6617 11.5523 20.6491C10.9096 20.6352 9.67332 20.2857 8.75427 19.987C7.62702 19.6206 6.7311 19.4268 6.80912 18.8045C6.84975 18.4804 7.29612 18.1489 8.14821 17.81Z" fill="#F5F9FC"/>
<defs>
<linearGradient id="paint0_linear_173_27123" x1="18" y1="0" x2="18" y2="35.7329" gradientUnits="userSpaceOnUse">
<stop stop-color="#2AABEE"/>
<stop offset="1" stop-color="#229ED9"/>
</linearGradient>
</defs>
</svg>
